<svg width="16" height="15" viewBox="0 0 16 15" fill="none" xmlns="http://www.w3.org/2000/svg">
<path d="M3.46082 2.88446H0.496094V12.1155H3.46082V2.88446Z" fill="#ED1F34"/>
<path d="M12.5392 12.1155V4.91935C12.5392 4.79629 12.4324 4.69617 12.3011 4.69617H12.2811V4.17478H12.3011C12.4324 4.17478 12.5392 4.07468 12.5392 3.9516V2.88446H15.5039V12.1155H12.5392Z" fill="#ED1F34"/>
<path d="M6.73771 8.87219V8.44861C6.73771 8.38132 6.70583 8.31832 6.65027 8.27573L5.3927 7.3127L5.34106 6.41341L6.30031 6.46182L7.10919 7.39017C7.15463 7.44231 7.22187 7.47222 7.29363 7.47222C7.32499 7.47222 7.35561 7.46648 7.38465 7.45518C7.48247 7.41719 7.54105 7.32533 7.53043 7.2266L7.35827 5.62546L8.00003 4.95531L8.64179 5.62544L8.46963 7.22658C8.45901 7.32531 8.51757 7.41717 8.61539 7.45514C8.64445 7.46645 8.67507 7.47216 8.70643 7.47216C8.77823 7.47216 8.84547 7.44228 8.89089 7.39015L9.69977 6.4618L10.659 6.41339L10.6074 7.31268L9.34979 8.27572C9.29421 8.3183 9.26233 8.38132 9.26233 8.44859V8.87217H6.73771V8.87219Z" fill="#ED1F34"/>
<path d="M12.043 3.95161V2.90322H3.95703V12.0968H12.043V4.91935C12.043 4.7857 12.1586 4.67742 12.3011 4.67742V4.19354C12.1586 4.19354 12.043 4.08524 12.043 3.95161ZM11.4321 7.28161L11.0028 7.61035C11.0028 7.61037 11.0027 7.61045 11.0027 7.61049L9.75848 8.56332V9.09532C9.75848 9.22897 9.64294 9.33725 9.50042 9.33725H8.2581V10.3787C8.2581 10.5124 8.14256 10.6206 8.00004 10.6206C7.85752 10.6206 7.74198 10.5124 7.74198 10.3787V9.33725H6.49969C6.35717 9.33725 6.24163 9.22897 6.24163 9.09532V8.56332L4.99741 7.61049C4.99735 7.61045 4.99731 7.61037 4.99727 7.61035L4.56799 7.28161C4.45761 7.19707 4.44123 7.04465 4.53137 6.94117C4.61553 6.84462 4.76269 6.82488 4.87171 6.89133L4.83145 6.19017C4.82753 6.12158 4.85485 6.05465 4.90667 6.00606C4.95845 5.95748 5.02989 5.93191 5.10305 5.93555L5.85097 5.97329C5.78007 5.87112 5.80115 5.73316 5.90413 5.65426C6.01449 5.56973 6.17709 5.58511 6.26725 5.68855L6.61789 6.09097C6.61797 6.09102 6.61801 6.09106 6.61807 6.09113L6.95085 6.47307L6.85415 5.57391L6.79855 5.05669C6.78427 4.92376 6.88763 4.80513 7.02943 4.79172C7.16143 4.77888 7.28071 4.86276 7.30767 4.98207L7.80808 4.45956C7.85702 4.40845 7.92684 4.37928 8.00014 4.37928C8.07342 4.37928 8.1432 4.40847 8.19218 4.45956L8.69258 4.98207C8.71954 4.86278 8.83858 4.77888 8.97082 4.79172C9.11266 4.80511 9.21598 4.92376 9.2017 5.05669L9.1461 5.57391L9.0494 6.47307L9.38218 6.09113C9.38226 6.09108 9.38228 6.09104 9.38236 6.09097L9.73302 5.68855C9.8232 5.58511 9.98574 5.56971 10.0961 5.65426C10.1991 5.73316 10.2202 5.87112 10.1493 5.97329L10.8972 5.93555C10.9704 5.93206 11.0418 5.95748 11.0936 6.00606C11.1454 6.05465 11.1727 6.12158 11.1688 6.19017L11.1285 6.89133C11.2375 6.82484 11.3847 6.84462 11.4689 6.94117C11.5589 7.04467 11.5425 7.19705 11.4321 7.28161Z" fill="white"/>
<path d="M3.44084 2.90322H0.516113V12.0968H3.44084V2.90322Z" fill="#ED1F34"/>
<path d="M12.5592 3.95161C12.5592 4.08524 12.4437 4.19354 12.3011 4.19354V4.67742C12.4437 4.67742 12.5592 4.7857 12.5592 4.91935V12.0968H15.4839V2.90322H12.5592V3.95161Z" fill="#ED1F34"/>
<path d="M15.742 2.41933H0.25806C0.11554 2.41933 0 2.52763 0 2.66128V12.3387C0 12.4724 0.11554 12.5806 0.25806 12.5806H15.7419C15.8845 12.5806 16 12.4724 16 12.3387V2.66128C16 2.52763 15.8845 2.41933 15.742 2.41933ZM15.4839 12.0968H12.5592V4.91935C12.5592 4.7857 12.4436 4.67742 12.3011 4.67742C12.1586 4.67742 12.043 4.7857 12.043 4.91935V12.0968H3.957V2.90322H12.043V3.9516C12.043 4.08524 12.1586 4.19354 12.3011 4.19354C12.4436 4.19354 12.5591 4.08526 12.5591 3.9516V2.90322H15.4839L15.4839 12.0968ZM0.516141 2.90322H3.44086V12.0968H0.516141V2.90322Z" fill="black"/>
<path d="M11.1284 6.89134L11.1686 6.19017C11.1725 6.12158 11.1452 6.05464 11.0934 6.00608C11.0416 5.95752 10.9703 5.93207 10.897 5.93556L10.1491 5.97331C10.22 5.87114 10.1989 5.73317 10.096 5.65427C9.98556 5.56977 9.82304 5.58512 9.73284 5.68857L9.38218 6.09098C9.38212 6.09104 9.38208 6.09107 9.38202 6.09113L9.04924 6.47307L9.14592 5.57389L9.20154 5.05667C9.21582 4.92374 9.11244 4.80509 8.97064 4.7917C8.83842 4.77885 8.71934 4.86276 8.69242 4.98205L8.192 4.45956C8.14308 4.40847 8.07326 4.37927 7.99996 4.37927C7.92668 4.37927 7.8569 4.40847 7.80792 4.45956L7.3075 4.98209C7.28056 4.86276 7.16124 4.77889 7.02928 4.79174C6.88744 4.80512 6.78412 4.92377 6.7984 5.05671L6.854 5.57393L6.95068 6.47311L6.61792 6.09117C6.61784 6.09111 6.6178 6.09107 6.61774 6.09102L6.26708 5.68861C6.17694 5.58514 6.01432 5.56977 5.90398 5.65431C5.80096 5.73321 5.7799 5.87117 5.85082 5.97334L5.10288 5.9356C5.02976 5.93194 4.95832 5.95754 4.90652 6.00612C4.8547 6.0547 4.82738 6.12164 4.8313 6.19021L4.87156 6.89138C4.76258 6.82489 4.61538 6.84468 4.53122 6.94122C4.44108 7.04472 4.45746 7.19712 4.56784 7.28168L4.99712 7.61041C4.99718 7.61045 4.99722 7.61052 4.99726 7.61056L6.24148 8.56338V9.09539C6.24148 9.22902 6.35702 9.33732 6.49954 9.33732H7.74192V10.3788C7.74192 10.5124 7.85746 10.6207 7.99998 10.6207C8.1425 10.6207 8.25804 10.5124 8.25804 10.3788V9.33732H9.50032C9.64284 9.33732 9.75838 9.22902 9.75838 9.09539V8.56338L11.0026 7.61056C11.0027 7.61052 11.0027 7.61045 11.0027 7.61041L11.432 7.28168C11.5424 7.19714 11.5588 7.04472 11.4686 6.94122C11.3845 6.84464 11.2374 6.82486 11.1284 6.89134ZM9.24228 8.44857V8.85342H6.75768V8.44857C6.75768 8.37593 6.72286 8.30716 6.6629 8.26118L5.41218 7.30338L5.36222 6.43321L6.29038 6.48004L7.09368 7.40198C7.16574 7.48465 7.28714 7.51336 7.39232 7.47243C7.49756 7.43155 7.56176 7.33088 7.55032 7.22466L7.37904 5.63175L8 4.98334L8.62098 5.63177L8.4497 7.22468C8.43828 7.3309 8.50248 7.43159 8.6077 7.47245C8.71292 7.51338 8.83424 7.48471 8.90634 7.402L9.70964 6.48006L10.6378 6.43323L10.5878 7.30339L9.33712 8.2612C9.2771 8.30716 9.24228 8.37593 9.24228 8.44857Z" fill="black"/>
<path d="M10.6378 6.43324L9.70963 6.48008L8.90633 7.40202C8.83427 7.48471 8.71291 7.51338 8.60769 7.47246C8.50245 7.43159 8.43825 7.33092 8.44969 7.2247L8.62097 5.63179L7.99999 4.98338L7.37901 5.63181L7.55029 7.22472C7.56171 7.33096 7.49751 7.43163 7.39229 7.47248C7.28711 7.51345 7.16575 7.48474 7.09365 7.40204L6.29034 6.4801L5.36218 6.43326L5.41214 7.30343L6.66286 8.26124C6.72286 8.3072 6.75764 8.37599 6.75764 8.44863V8.85346H9.24225V8.44863C9.24225 8.37597 9.27707 8.3072 9.33705 8.26124L10.5878 7.30343L10.6378 6.43324Z" fill="#ED1F34"/>
</svg>
