<svg width="33" height="29" viewBox="0 0 33 29" fill="none" xmlns="http://www.w3.org/2000/svg">
<path d="M20.9544 23.8167C20.552 23.9887 20.1345 24.1382 19.7133 24.2611C19.3539 24.366 19.152 24.7282 19.2621 25.0702C19.3519 25.3489 19.6213 25.5281 19.9126 25.5281C19.9787 25.5281 20.0459 25.5189 20.1124 25.4995C20.5874 25.3609 21.0584 25.1923 21.5123 24.9982C21.8551 24.8515 22.0082 24.4682 21.8541 24.142C21.7 23.8157 21.2971 23.6701 20.9544 23.8167Z" fill="#F7A600"/>
<path d="M14.1943 4.54359C14.2413 4.54359 14.2892 4.53896 14.337 4.5292C14.7674 4.44176 15.2087 4.37925 15.6485 4.34322C16.023 4.31254 16.3005 3.99881 16.2682 3.6424C16.236 3.28604 15.9067 3.02219 15.5318 3.05262C15.0359 3.09323 14.5383 3.16384 14.0529 3.26238C13.6853 3.33702 13.451 3.68112 13.5293 4.03095C13.5976 4.33523 13.88 4.54359 14.1943 4.54359Z" fill="#F7A600"/>
<path d="M18.7924 4.52454C19.2239 4.61118 19.6541 4.72466 20.0709 4.8618C20.1446 4.88607 20.2196 4.89754 20.2934 4.89754C20.5754 4.89754 20.8392 4.7293 20.9366 4.46142C21.0594 4.12336 20.871 3.75457 20.5158 3.63767C20.0456 3.48285 19.5603 3.35492 19.0734 3.25711C18.7053 3.18321 18.3445 3.40718 18.2669 3.75713C18.1893 4.10702 18.4246 4.45063 18.7924 4.52454Z" fill="#F7A600"/>
<path d="M9.87155 6.38537C10.0107 6.38537 10.1511 6.34488 10.2722 6.26092C10.6286 6.01341 11.0047 5.78462 11.3898 5.58107C11.7184 5.40735 11.8368 5.01307 11.6542 4.70037C11.4717 4.38768 11.0575 4.27493 10.7287 4.44872C10.2949 4.67805 9.87123 4.93575 9.46972 5.21448C9.16611 5.42528 9.09953 5.83047 9.32105 6.11945C9.4544 6.29324 9.6615 6.38537 9.87155 6.38537Z" fill="#F7A600"/>
<path d="M16.6015 24.7065C16.6005 24.7065 16.5997 24.7065 16.5987 24.7065H16.5765C16.134 24.7065 15.6884 24.6805 15.252 24.6292C14.8788 24.585 14.5391 24.8375 14.493 25.1924C14.4469 25.5474 14.7119 25.8708 15.0849 25.9146C15.5766 25.9724 16.0784 26.0018 16.5764 26.0018H16.6041C16.9799 26.0004 17.2834 25.7093 17.282 25.3516C17.2805 24.9948 16.9761 24.7065 16.6015 24.7065Z" fill="#F7A600"/>
<path d="M12.22 23.8258C11.8176 23.6548 11.4221 23.4578 11.0444 23.2402C10.7228 23.055 10.3044 23.1529 10.1098 23.4589C9.91517 23.765 10.0181 24.1632 10.3396 24.3483C10.7654 24.5935 11.2113 24.8156 11.6649 25.0084C11.7551 25.0468 11.8493 25.0649 11.9421 25.0649C12.2025 25.0649 12.4509 24.922 12.5639 24.6812C12.7171 24.3547 12.5632 23.9717 12.22 23.8258Z" fill="#F7A600"/>
<path d="M27.6355 17.223C27.2779 17.1129 26.8941 17.2995 26.7784 17.6398C26.6427 18.0388 26.4791 18.434 26.292 18.8145C26.1327 19.1384 26.2796 19.5239 26.62 19.6756C26.7133 19.7171 26.8114 19.7368 26.9079 19.7368C27.164 19.7368 27.4092 19.5988 27.5248 19.3635C27.7358 18.9345 27.9204 18.4888 28.0735 18.0387C28.1892 17.6983 27.9931 17.3332 27.6355 17.223Z" fill="#F7A600"/>
<path d="M7.78918 20.3417C7.57355 20.0488 7.14923 19.9775 6.84133 20.1826C6.53343 20.3877 6.45859 20.7916 6.67409 21.0846C6.95885 21.4715 7.27194 21.8458 7.6047 22.1971C7.73913 22.3389 7.92432 22.411 8.11034 22.411C8.27278 22.411 8.43579 22.3559 8.56594 22.2443C8.84513 22.0047 8.8673 21.5953 8.61553 21.3296C8.32013 21.0178 8.04203 20.6854 7.78918 20.3417Z" fill="#F7A600"/>
<path d="M25.5135 21.2645C25.2339 21.0256 24.8036 21.0475 24.5524 21.3137C24.2577 21.6261 23.9395 21.9243 23.6067 22.2001C23.3232 22.4349 23.2936 22.8441 23.5404 23.1138C23.6749 23.2609 23.8639 23.3361 24.0539 23.3361C24.2124 23.3361 24.3717 23.2838 24.5006 23.1769C24.8753 22.8664 25.2335 22.5307 25.5653 22.1791C25.8163 21.9128 25.7931 21.5034 25.5135 21.2645Z" fill="#F7A600"/>
<path d="M32.7169 12.9473L27.1385 3.7527C27.0451 3.5986 26.8891 3.48793 26.7072 3.44653C26.5254 3.40524 26.3336 3.43689 26.177 3.53415L26.0019 3.64294C23.3549 1.5556 20.0575 0.419342 16.5764 0.419342C12.6224 0.419342 8.90506 1.88458 6.10919 4.54516C5.46296 5.16013 4.88555 5.82283 4.37722 6.52365L3.74303 6.36316C3.38028 6.27132 3.00786 6.47645 2.91072 6.82147L0.0232158 17.0768C-0.0236255 17.2429 0.00104467 17.4199 0.0915234 17.5688C0.182066 17.7177 0.331049 17.8262 0.505662 17.8703L2.32254 18.3301C2.99934 20.6276 4.2877 22.7332 6.10919 24.4667C8.90513 27.1273 12.6224 28.5925 16.5764 28.5925C20.5304 28.5925 24.2477 27.1273 27.0436 24.4667C29.8386 21.8069 31.3782 18.2708 31.3792 14.5095L32.4996 13.8136C32.8022 13.6255 32.8977 13.2451 32.7169 12.9473ZM16.5765 1.71476C19.6697 1.71476 22.5217 2.71491 24.7957 4.39235L22.5524 5.786C22.2498 5.974 22.1544 6.35432 22.3351 6.65219L22.5249 6.96507L21.3567 7.60698C20.9405 7.83565 20.4758 7.91358 19.8972 7.8512L14.64 6.52219C13.7593 6.29748 12.8464 6.77598 12.517 7.63497C12.5056 7.66479 12.4964 7.69534 12.4897 7.72644C12.4041 8.12225 12.4181 8.51586 12.5147 8.8824L12.4508 8.86605C11.783 8.69574 11.0701 8.66562 10.3892 8.77873C9.90199 8.85983 9.39193 8.83813 8.9141 8.71629L7.611 8.38396L7.7084 8.03797C7.75524 7.87187 7.73057 7.69485 7.64009 7.54594C7.54955 7.3971 7.40056 7.28856 7.22595 7.24441L5.79245 6.88165C8.24441 3.74861 12.1649 1.71476 16.5765 1.71476ZM25.1239 12.6776C24.8553 12.2351 24.4231 11.9187 23.9067 11.7871L14.6947 9.42949C14.082 9.27326 13.7027 8.66867 13.8127 8.03877C13.8947 7.8659 14.0697 7.71784 14.2889 7.77364C14.2889 7.77364 19.6538 9.12783 19.6842 9.13143C20.5803 9.23802 21.3499 9.10624 22.037 8.72867L23.2053 8.08676L27.0491 14.4224L25.479 15.1423C25.3457 14.9927 25.1879 14.8615 25.0089 14.7557C25.1509 14.5714 25.2599 14.3597 25.3257 14.1259C25.4641 13.6345 25.3924 13.1202 25.1239 12.6776ZM16.2592 16.404L22.335 17.9532C22.5866 18.086 22.7215 18.3705 22.6432 18.6485C22.5525 18.9707 22.2033 19.1625 21.8646 19.0762L15.1903 17.3937C14.8272 17.3011 14.454 17.5061 14.3567 17.8516C14.2593 18.1971 14.4748 18.5523 14.8379 18.6449L20.5732 20.1073C20.8249 20.2401 20.9599 20.5246 20.8816 20.8026C20.8377 20.9588 20.7325 21.0892 20.5854 21.17C20.4384 21.2507 20.2672 21.2722 20.103 21.2304L9.65324 18.5659C9.20277 18.451 8.7885 18.2535 8.42197 17.9791L8.34047 17.9181C7.82835 17.5345 7.2494 17.2586 6.6199 17.0982L5.25509 16.7502L7.2585 9.63523L8.56154 9.9675C9.22923 10.1377 9.94217 10.1679 10.6231 10.0548C11.1104 9.97384 11.6205 9.99542 12.0982 10.1173L23.5545 13.0385C23.8983 13.1261 24.1031 13.4637 24.0096 13.7953C23.9181 14.12 23.5753 14.3052 23.2291 14.2177L23.2276 14.2173C23.1744 14.2037 17.8058 12.8541 17.8058 12.8541C17.4426 12.7615 17.0696 12.9666 16.9723 13.3121C16.8749 13.6576 17.0904 14.0127 17.4535 14.1053L24.1183 15.7855C24.4622 15.8731 24.667 16.2107 24.5749 16.5378C24.4843 16.8599 24.1346 17.052 23.7963 16.9655L16.6115 15.1527C16.248 15.0599 15.8752 15.2653 15.7779 15.6107C15.6806 15.9562 15.8961 16.3113 16.2592 16.404ZM1.51445 16.7852L4.04978 7.78114L6.21684 8.32945L3.68158 17.3336L1.51445 16.7852ZM16.5765 27.2972C10.7178 27.2972 5.72273 23.7118 3.88657 18.7258L3.98832 18.7516C4.04689 18.7664 4.10572 18.7735 4.16364 18.7735C4.46417 18.7735 4.73913 18.5826 4.82064 18.2933L4.90285 18.0013L6.26766 18.3493C6.71806 18.4641 7.13227 18.6615 7.49886 18.9361L7.58037 18.9971C8.09242 19.3806 8.67137 19.6564 9.30094 19.817L19.7508 22.4816C19.9228 22.5254 20.0974 22.5472 20.2709 22.5472C20.6169 22.5472 20.9584 22.4608 21.266 22.2917C21.728 22.038 22.0584 21.6281 22.1965 21.1378C22.2681 20.8833 22.2821 20.6268 22.2461 20.381C23.0404 20.2974 23.7391 19.7615 23.958 18.9837C24.0244 18.7479 24.0413 18.5102 24.0148 18.281C24.8751 18.2584 25.6559 17.7035 25.8898 16.873C25.9379 16.7019 25.9586 16.5301 25.9568 16.3611L27.7317 15.5473L27.9134 15.8467C28.1588 16.2685 28.7633 16.1346 28.8749 16.0653L29.9856 15.3753C29.5142 22.0243 23.681 27.2972 16.5765 27.2972ZM28.7328 14.6066L23.836 6.53542L26.3191 4.9928L31.216 13.064L28.7328 14.6066Z" fill="#F7A600"/>
</svg>
