<svg width="193" height="68" viewBox="0 0 193 68" fill="none" xmlns="http://www.w3.org/2000/svg">
<path d="M68.9001 28.761V31.5762C68.9001 33.2927 68.4811 34.6102 67.6432 35.5284C66.8052 36.4465 65.5686 36.9055 63.9334 36.9059C62.2981 36.9059 61.0616 36.4469 60.2236 35.5284C59.3857 34.6099 58.9667 33.2923 58.9667 31.5762V20.5541C58.9667 18.8384 59.3857 17.521 60.2236 16.6017C61.0616 15.6824 62.2981 15.2231 63.9334 15.2238C65.5686 15.2238 66.8052 15.6832 67.6432 16.6017C68.4811 17.5202 68.9001 18.8376 68.9001 20.5541V22.6136H65.7504V20.3419C65.8096 19.7616 65.6414 19.1807 65.2812 18.7218C64.9325 18.4192 64.4863 18.2527 64.0246 18.2527C63.5629 18.2527 63.1167 18.4192 62.7679 18.7218C62.4074 19.1806 62.2392 19.7615 62.2987 20.3419V31.7861C62.2369 32.362 62.4056 32.9391 62.7679 33.391C63.1209 33.6845 63.5655 33.8452 64.0246 33.8452C64.4836 33.8452 64.9282 33.6845 65.2812 33.391C65.6433 32.939 65.8119 32.362 65.7504 31.7861V28.7581L68.9001 28.761Z" fill="#F7A600"/>
<path d="M81.7093 36.666H78.3479L77.7726 32.8198H73.6844L73.1091 36.666H70.0509L73.4428 15.4685H78.318L81.7093 36.666ZM74.1085 29.9433H77.3186L75.7132 19.2234L74.1085 29.9433Z" fill="#F7A600"/>
<path d="M82.8302 20.5541C82.8302 18.8384 83.239 17.521 84.0566 16.6017C84.8742 15.6824 86.1006 15.2231 87.7359 15.2238C89.3711 15.2238 90.5976 15.6832 91.4152 16.6017C92.2328 17.5202 92.6416 18.8376 92.6416 20.5541V21.2206H89.4925V20.3408C89.5495 19.7652 89.3932 19.1886 89.0532 18.7207C88.7162 18.4185 88.2794 18.2513 87.8268 18.2513C87.3741 18.2513 86.9374 18.4185 86.6003 18.7207C86.2603 19.1886 86.1042 19.7653 86.1616 20.3408C86.1478 21.0137 86.3151 21.6778 86.6461 22.2639C86.9826 22.8373 87.3895 23.3663 87.8573 23.8388C88.3417 24.3338 88.8616 24.8283 89.4168 25.3225C89.9769 25.8223 90.4983 26.364 90.9764 26.9427C91.4728 27.5482 91.8806 28.2214 92.1876 28.9417C92.5274 29.7776 92.6923 30.6741 92.6721 31.5762C92.6721 33.2927 92.2531 34.6102 91.4152 35.5284C90.5772 36.4465 89.3406 36.9055 87.7054 36.9059C86.0701 36.9059 84.8335 36.4469 83.9956 35.5284C83.1576 34.6099 82.7389 33.2923 82.7393 31.5762V30.2748H85.8883V31.7887C85.8265 32.3646 85.9952 32.9414 86.3575 33.3933C86.7105 33.6868 87.1551 33.8475 87.6142 33.8475C88.0732 33.8475 88.5178 33.6868 88.8708 33.3933C89.233 32.9414 89.4017 32.3646 89.34 31.7887C89.3539 31.1158 89.1865 30.4513 88.8556 29.8653C88.5185 29.2922 88.1117 28.7632 87.6444 28.2904C87.1595 27.7962 86.6397 27.3017 86.0848 26.8066C85.5245 26.3071 85.0031 25.7654 84.5252 25.1865C84.0283 24.5814 83.6204 23.9084 83.314 23.1878C82.9743 22.3523 82.8096 21.4558 82.8302 20.5541Z" fill="#F7A600"/>
<path d="M94.1561 20.5541C94.1561 18.8384 94.5649 17.521 95.3825 16.6017C96.2001 15.6824 97.4266 15.2231 99.0618 15.2238C100.697 15.2238 101.923 15.6832 102.741 16.6017C103.559 17.5202 103.967 18.8376 103.967 20.5541V21.2206H100.818V20.3408C100.875 19.7652 100.718 19.1886 100.379 18.7207C100.042 18.4185 99.6048 18.2513 99.1521 18.2513C98.6994 18.2513 98.2627 18.4185 97.9257 18.7207C97.5857 19.1886 97.4295 19.7653 97.487 20.3408C97.4731 21.0137 97.6405 21.6778 97.9714 22.2639C98.308 22.8373 98.7148 23.3663 99.1826 23.8388C99.6671 24.3338 100.187 24.8283 100.742 25.3225C101.302 25.8224 101.824 26.364 102.302 26.9427C102.798 27.5483 103.206 28.2214 103.513 28.9417C103.853 29.7776 104.018 30.6741 103.997 31.5762C103.997 33.2927 103.578 34.6102 102.74 35.5284C101.903 36.4465 100.666 36.9055 99.0307 36.9059C97.3955 36.9059 96.1589 36.4469 95.3209 35.5284C94.4829 34.6099 94.0642 33.2923 94.0646 31.5762V30.2748H97.2137V31.7887C97.1519 32.3646 97.3206 32.9414 97.6829 33.3933C98.0358 33.6868 98.4804 33.8475 98.9395 33.8475C99.3986 33.8475 99.8431 33.6868 100.196 33.3933C100.558 32.9414 100.727 32.3646 100.665 31.7887C100.679 31.1158 100.512 30.4513 100.181 29.8653C99.844 29.2922 99.4371 28.7631 98.9697 28.2904C98.4852 27.7962 97.9654 27.3017 97.4101 26.8066C96.8498 26.3071 96.3284 25.7654 95.8505 25.1865C95.3536 24.5813 94.9458 23.9084 94.6394 23.1878C94.2999 22.3522 94.1354 21.4558 94.1561 20.5541Z" fill="#F7A600"/>
<path d="M109.237 24.4001H113.812V27.4281H109.237V33.6359H114.991V36.6642H105.906V15.4664H114.991V18.4942H109.237V24.4001ZM117.11 24.4001H121.685V27.4281H117.11V24.4001Z" fill="#F7A600"/>
<path d="M134.886 28.761V31.5762C134.886 33.2927 134.467 34.6102 133.629 35.5284C132.791 36.4465 131.555 36.9055 129.92 36.9059C128.285 36.9059 127.048 36.4469 126.21 35.5284C125.372 34.6099 124.953 33.2923 124.953 31.5762V20.5541C124.953 18.8384 125.372 17.521 126.21 16.6017C127.048 15.6824 128.285 15.2231 129.92 15.2238C131.555 15.2238 132.792 15.6832 133.629 16.6017C134.467 17.5202 134.886 18.8376 134.886 20.5541V22.6136H131.737V20.3419C131.796 19.7615 131.628 19.1807 131.267 18.7218C130.919 18.4191 130.473 18.2524 130.011 18.2524C129.549 18.2524 129.103 18.4191 128.754 18.7218C128.394 19.1806 128.225 19.7615 128.285 20.3419V31.7861C128.223 32.362 128.392 32.9391 128.754 33.391C129.107 33.6845 129.552 33.8452 130.011 33.8452C130.47 33.8452 130.914 33.6845 131.267 33.391C131.63 32.939 131.798 32.362 131.737 31.7861V28.7581L134.886 28.761Z" fill="#F7A600"/>
<path d="M143.784 36.666L143.578 30.7306C143.647 29.996 143.466 29.2596 143.063 28.6414C142.847 28.4237 142.586 28.2566 142.298 28.1519C142.01 28.0473 141.702 28.0075 141.397 28.0359H140.246L140.452 36.666H137.122L136.915 15.4685H141.942C143.678 15.4685 144.935 15.8722 145.712 16.6797C146.49 17.4871 146.878 18.7083 146.878 20.3432V22.0094C146.878 24.1893 146.152 25.6228 144.698 26.3098C145.09 26.4527 145.447 26.676 145.747 26.9654C146.047 27.2548 146.283 27.6039 146.44 27.9901C146.775 28.8955 146.934 29.8567 146.909 30.8219L147.115 36.666H143.784ZM140.247 18.496V25.0065H141.549C142.082 25.0374 142.606 24.8643 143.016 24.5222C143.218 24.2805 143.369 23.9999 143.46 23.698C143.551 23.396 143.579 23.0788 143.543 22.7655V20.6763C143.592 20.0911 143.448 19.5062 143.133 19.0106C142.973 18.8304 142.774 18.6899 142.55 18.6005C142.327 18.5111 142.086 18.475 141.846 18.4954L140.247 18.496Z" fill="#F7A600"/>
<path d="M148.816 20.5542C148.816 18.8384 149.25 17.521 150.118 16.6017C151.167 15.713 152.497 15.225 153.872 15.225C155.247 15.225 156.577 15.713 157.626 16.6017C158.494 17.5206 158.928 18.838 158.928 20.5542V31.5768C158.928 33.2933 158.494 34.6108 157.626 35.5289C156.577 36.4177 155.247 36.9053 153.872 36.9053C152.497 36.9053 151.167 36.4177 150.118 35.5289C149.25 34.6108 148.816 33.2933 148.816 31.5768V20.5542ZM152.148 31.7893C152.088 32.3697 152.256 32.9504 152.617 33.4091C152.966 33.7118 153.412 33.8785 153.874 33.8785C154.335 33.8785 154.782 33.7118 155.13 33.4091C155.491 32.9503 155.659 32.3696 155.599 31.7893V20.3419C155.659 19.7616 155.49 19.1807 155.13 18.7218C154.782 18.4191 154.335 18.2524 153.874 18.2524C153.412 18.2524 152.966 18.4191 152.617 18.7218C152.257 19.1806 152.088 19.7615 152.148 20.3419V31.7893Z" fill="#F7A600"/>
<path d="M164.261 15.4674V31.8197C164.199 32.3956 164.368 32.9724 164.73 33.4243C165.083 33.7179 165.528 33.8788 165.987 33.8788C166.446 33.8788 166.891 33.7179 167.244 33.4243C167.606 32.9723 167.774 32.3956 167.713 31.8197V15.4674H170.862V31.6086C170.862 33.3244 170.443 34.6415 169.606 35.56C168.768 36.4785 167.531 36.9378 165.896 36.9378C164.261 36.9378 163.024 36.4785 162.186 35.56C161.348 34.6415 160.929 33.3244 160.929 31.6086V15.4674H164.261ZM161.747 13.7376L164.445 9.78339H167.443L170.138 13.7376H167.292L165.929 12.0719L164.596 13.7376H161.747Z" fill="#F7A600"/>
<path d="M172.165 15.4664H182.461V18.4942H178.981V36.6659H175.65V18.4959H172.168L172.165 15.4664Z" fill="#F7A600"/>
<path d="M187.246 24.4001H191.82V27.4281H187.246V33.6359H192.999V36.6642H183.915V15.4664H192.999V18.4942H187.246V24.4001Z" fill="#F7A600"/>
<path d="M193 43.2892H58.9673V60.6639H193V43.2892Z" fill="#F7A600"/>
<path d="M53.0563 30.666C53.1025 30.4464 53.0992 30.2194 53.0465 30.0013C52.9938 29.7831 52.8931 29.5795 52.7517 29.4053C52.6103 29.2311 52.4318 29.0905 52.2292 28.994C52.0265 28.8976 51.8049 28.8476 51.5806 28.8477H49.5389L49.9834 24.0664C50.0216 23.6558 49.9737 23.2419 49.8428 22.851C49.7119 22.46 49.5008 22.1004 49.2231 21.7956C48.9454 21.4908 48.6071 21.2474 48.2299 21.0808C47.8527 20.9142 47.4449 20.8282 47.0326 20.8282H41.4665L42.1509 8.57983C42.1734 8.17735 42.1135 7.77442 41.9749 7.39589C41.8363 7.01736 41.622 6.67109 41.345 6.3782C41.0681 6.08532 40.7343 5.85193 40.3641 5.69244C39.9939 5.53295 39.595 5.45068 39.1919 5.45058H32.8093L32.8563 3.02056C32.8639 2.62663 32.7929 2.23515 32.6474 1.86898C32.5019 1.50282 32.2849 1.16937 32.0089 0.888097C31.733 0.606827 31.4038 0.383324 31.0405 0.230831C30.6772 0.0783376 30.2871 -7.40859e-05 29.8931 5.25242e-08H23.1961C22.8022 -7.25712e-05 22.4122 0.0783741 22.0489 0.230831C21.6856 0.383287 21.3564 0.606603 21.0805 0.88781C20.8046 1.16902 20.5875 1.50246 20.442 1.86855C20.2965 2.23465 20.2254 2.6261 20.233 3.01999L20.3333 8.26938H14.1888C13.7861 8.26934 13.3875 8.35134 13.0175 8.51052C12.6475 8.6697 12.3138 8.90281 12.0369 9.19528C11.76 9.48775 11.5456 9.83356 11.4068 10.2117C11.268 10.5898 11.2078 10.9923 11.2298 11.3945L11.5119 16.5687H5.66248C5.25023 16.5686 4.84251 16.6548 4.46538 16.8213C4.08825 16.9878 3.75001 17.2312 3.47229 17.5358C3.19456 17.8405 2.98346 18.1997 2.85248 18.5906C2.72151 18.9815 2.67354 19.3953 2.71165 19.8058L3.54981 28.8483H1.50811C1.28372 28.8481 1.06212 28.8982 0.859511 28.9946C0.6569 29.091 0.478382 29.2316 0.336974 29.4059C0.195566 29.5801 0.0948449 29.7837 0.0421529 30.0018C-0.0105391 30.22 -0.013878 30.447 0.0323977 30.6665L7.22323 64.9197C7.39926 65.7451 7.85256 66.4855 8.50775 67.0175C9.16293 67.5496 9.98051 67.8414 10.8245 67.8443H42.2624C43.1064 67.8414 43.924 67.5496 44.5792 67.0175C45.2343 66.4855 45.6876 65.7451 45.8637 64.9197L53.0563 30.666Z" fill="#F7A600"/>
<path d="M41.2975 23.8447H46.9763L46.5106 28.8494H41.0183L41.2975 23.8447Z" fill="#090400"/>
<path d="M32.7524 8.45666L39.1397 8.41199L38.3666 22.2541L37.9608 29.527C37.582 29.7935 37.2609 30.1339 37.017 30.5276C36.7731 30.9213 36.6113 31.3603 36.5414 31.8181C36.3352 33.2064 35.8417 34.5364 35.0924 35.723C34.343 36.9097 33.3542 37.927 32.1893 38.7098L32.7524 8.45666Z" fill="#090400"/>
<path d="M29.8403 2.96387L29.7634 6.92923C29.7634 6.93568 29.7634 6.94225 29.7634 6.9487L29.1458 40.1079C27.4417 40.5734 25.6439 40.5734 23.9398 40.1079L23.375 9.76392C23.375 9.75923 23.375 9.75401 23.375 9.74932L23.1937 3.01656L29.8403 2.96387Z" fill="#090400"/>
<path d="M20.3896 11.2859L20.8999 38.7073C19.7349 37.9246 18.7461 36.9076 17.9966 35.7211C17.2472 34.5345 16.7535 33.2046 16.5472 31.8164C16.4152 30.9452 15.9532 30.1581 15.2569 29.6181L14.6076 17.9935L14.2422 11.2865L20.3896 11.2859Z" fill="#090400"/>
<path d="M11.6779 19.5858L12.1952 28.8494H6.57803L5.71936 19.5858H11.6779Z" fill="#090400"/>
<path d="M42.914 64.3016C42.8823 64.4506 42.8005 64.5842 42.6823 64.6802C42.564 64.7762 42.4165 64.8289 42.2642 64.8294H10.8263C10.674 64.8289 10.5264 64.7762 10.4082 64.6802C10.2899 64.5842 10.2082 64.4506 10.1764 64.3016L3.36682 31.8664H13.0774C13.1302 31.8673 13.1826 31.8764 13.2328 31.8931C13.2422 31.8966 13.2522 31.8981 13.2615 31.9017C13.3385 31.9274 13.4071 31.9734 13.4604 32.0345C13.5137 32.0957 13.5498 32.1699 13.5648 32.2496C14.019 35.3683 15.5808 38.2192 17.9645 40.2809C20.3482 42.3426 23.3945 43.4773 26.5461 43.4773C29.6977 43.4773 32.744 42.3426 35.1277 40.2809C37.5114 38.2192 39.0732 35.3683 39.5274 32.2496C39.551 32.1387 39.6128 32.0395 39.702 31.9695C39.7912 31.8995 39.9021 31.863 40.0154 31.8664H49.723L42.914 64.3016Z" fill="#090400"/>
<path d="M78.735 48.2631C78.3388 48.2451 77.9444 48.3263 77.5875 48.4994C77.2307 48.6725 76.9227 48.932 76.6916 49.2543C76.164 50.0758 75.9106 51.0434 75.9678 52.018C75.9678 54.4767 76.8902 55.706 78.735 55.7056C79.6991 55.6687 80.6504 55.4727 81.5504 55.1251V57.0857C80.5876 57.4736 79.5571 57.6658 78.5192 57.651C77.836 57.6954 77.1516 57.5875 76.5152 57.3351C75.8788 57.0828 75.3064 56.6924 74.8393 56.1919C73.9896 55.219 73.565 53.8228 73.5654 52.0034C73.5425 50.9646 73.7565 49.9344 74.1912 48.9906C74.577 48.1635 75.2039 47.4723 75.9895 47.0079C76.8264 46.5335 77.7763 46.2951 78.738 46.3177C79.8581 46.3299 80.9609 46.5952 81.9639 47.0941L81.2096 48.9946C80.8044 48.8015 80.3891 48.6302 79.9656 48.4814C79.5706 48.3399 79.1546 48.2661 78.735 48.2631Z" fill="#090400"/>
<path d="M97.1415 51.9728C97.1415 53.7977 96.6891 55.2 95.7843 56.1799C94.7097 57.1277 93.3261 57.6508 91.8933 57.6508C90.4604 57.6508 89.0768 57.1277 88.0023 56.1799C87.0974 55.1996 86.645 53.7921 86.645 51.9571C86.645 50.122 87.0986 48.7208 88.0058 47.7534C88.5171 47.2501 89.1292 46.8606 89.8017 46.6104C90.4742 46.3603 91.1919 46.255 91.9079 46.3017C92.6227 46.2541 93.3393 46.3598 94.0098 46.6122C94.6802 46.8645 95.2888 47.2575 95.7948 47.7646C96.6926 48.7402 97.1415 50.1428 97.1415 51.9728ZM89.0961 51.9728C89.0284 52.9514 89.275 53.9262 89.8 54.7548C90.0466 55.0699 90.3665 55.3198 90.7319 55.4828C91.0973 55.6459 91.497 55.717 91.8962 55.6902C93.7614 55.6902 94.694 54.4511 94.694 51.9728C94.694 49.4945 93.7664 48.2528 91.9115 48.2477C91.5109 48.2214 91.11 48.2933 90.7434 48.4568C90.3768 48.6203 90.0556 48.8706 89.8076 49.1862C89.2778 50.0148 89.0284 50.9917 89.0961 51.9728Z" fill="#090400"/>
<path d="M111.642 46.476V53.6094C111.659 54.3596 111.47 55.0999 111.096 55.7502C110.724 56.3688 110.173 56.8596 109.516 57.1578C108.748 57.5009 107.914 57.6682 107.073 57.6475C105.873 57.7223 104.69 57.3321 103.77 56.5578C103.372 56.1739 103.062 55.709 102.859 55.1946C102.656 54.6802 102.566 54.1282 102.594 53.5759V46.4731H104.924V53.2216C104.869 53.8859 105.051 54.5482 105.437 55.0915C105.659 55.3085 105.926 55.4743 106.219 55.5772C106.512 55.6802 106.824 55.7178 107.133 55.6875C107.437 55.7154 107.744 55.6762 108.031 55.5726C108.318 55.469 108.579 55.3037 108.796 55.0881C109.184 54.5416 109.367 53.8753 109.312 53.207V46.4737L111.642 46.476Z" fill="#090400"/>
<path d="M119.922 53.2704V57.4998H117.584V46.4761H120.796C122.294 46.4761 123.403 46.7497 124.122 47.2972C124.701 47.8188 125.074 48.5307 125.174 49.3039C125.274 50.0771 125.093 50.8605 124.665 51.512C124.279 52.0402 123.755 52.4513 123.149 52.6996C124.808 55.1779 125.889 56.7789 126.392 57.5027H123.798L121.166 53.2733L119.922 53.2704ZM119.922 51.3699H120.676C121.246 51.4116 121.816 51.283 122.312 51.0005C122.491 50.8673 122.634 50.6909 122.726 50.4878C122.818 50.2847 122.858 50.0616 122.84 49.8392C122.859 49.6221 122.819 49.4039 122.724 49.2077C122.629 49.0115 122.483 48.8446 122.301 48.7248C121.783 48.4694 121.207 48.3553 120.631 48.394H119.922L119.922 51.3699Z" fill="#090400"/>
<path d="M135.274 57.4998H132.936V48.4215H129.945V46.476H138.269V48.4215H135.278L135.274 57.4998Z" fill="#090400"/>
<path d="M149.554 57.4998H143.207V46.4761H149.554V48.3917H145.542V50.8117H149.274V52.7265H145.542V55.5695H149.554V57.4998Z" fill="#090400"/>
<path d="M161.848 57.4974L161.048 54.8732H157.029L156.23 57.4974H153.711L157.602 46.4278H160.46L164.366 57.4974H161.848ZM160.491 52.9131C159.751 50.5353 159.335 49.1905 159.242 48.8784C159.149 48.5664 159.083 48.3201 159.042 48.1398C158.877 48.7827 158.402 50.3738 157.617 52.9131H160.491Z" fill="#090400"/>
<path d="M177.968 46.476V53.6094C177.985 54.3596 177.796 55.0999 177.421 55.7502C177.05 56.3688 176.499 56.8598 175.842 57.1578C175.074 57.501 174.239 57.6683 173.398 57.6475C172.198 57.7224 171.015 57.3322 170.096 56.5578C169.697 56.1739 169.386 55.709 169.183 55.1946C168.98 54.6802 168.89 54.1282 168.919 53.5759V46.4731H171.249V53.2216C171.194 53.8859 171.375 54.5481 171.761 55.0915C171.984 55.3085 172.251 55.4743 172.544 55.5772C172.837 55.6801 173.149 55.7178 173.458 55.6875C173.762 55.7154 174.069 55.6759 174.356 55.5723C174.643 55.4688 174.905 55.3036 175.121 55.0881C175.51 54.5416 175.693 53.8754 175.638 53.207V46.4737L177.968 46.476Z" fill="#090400"/>
<path d="M66.3728 53.8539L68.2908 55.0673L67.7816 52.7799L69.4761 51.2403L67.2473 51.0427L66.3751 48.8847L65.503 51.0427L63.2742 51.2403L64.9687 52.7799L64.4595 55.0673L66.3728 53.8539Z" fill="#090400"/>
<path d="M185.45 53.8539L187.368 55.0673L186.859 52.7799L188.553 51.2403L186.325 51.0427L185.453 48.8847L184.58 51.0427L182.352 51.2403L184.046 52.7799L183.537 55.0673L185.45 53.8539Z" fill="#090400"/>
</svg>
