<svg width="18" height="23" viewBox="0 0 18 23" fill="none" xmlns="http://www.w3.org/2000/svg">
<path d="M17.989 10.2156C18.0047 10.1448 18.0036 10.0716 17.9857 10.0012C17.9678 9.93084 17.9337 9.86515 17.8857 9.80894C17.8378 9.75273 17.7773 9.70738 17.7086 9.67626C17.6399 9.64515 17.5647 9.62902 17.4887 9.62905H16.7964L16.9472 8.08657C16.9601 7.95412 16.9439 7.8206 16.8995 7.69446C16.8551 7.56833 16.7835 7.45232 16.6894 7.354C16.5952 7.25568 16.4805 7.17713 16.3526 7.12339C16.2247 7.06964 16.0865 7.04191 15.9467 7.0419H14.0594L14.2915 3.09049C14.2991 2.96065 14.2788 2.83066 14.2318 2.70854C14.1848 2.58642 14.1122 2.47471 14.0183 2.38023C13.9243 2.28574 13.8112 2.21045 13.6857 2.159C13.5601 2.10754 13.4249 2.081 13.2882 2.08097H11.1242L11.1401 1.29703C11.1427 1.16994 11.1186 1.04365 11.0693 0.925519C11.02 0.807392 10.9464 0.699817 10.8528 0.609078C10.7593 0.518338 10.6476 0.446234 10.5244 0.397039C10.4013 0.347843 10.269 0.322547 10.1354 0.322571H7.86478C7.7312 0.322547 7.59896 0.347855 7.4758 0.397039C7.35263 0.446222 7.24101 0.518266 7.14746 0.608985C7.05391 0.699705 6.98032 0.807275 6.93098 0.925381C6.88164 1.04349 6.85754 1.16977 6.86011 1.29684L6.89411 2.99034H4.8108C4.67424 2.99032 4.5391 3.01678 4.41365 3.06813C4.2882 3.11948 4.17507 3.19468 4.08118 3.28904C3.98728 3.38339 3.91458 3.49495 3.86753 3.61694C3.82048 3.73892 3.80006 3.86877 3.80752 3.99852L3.90318 5.66776H1.91989C1.78012 5.66774 1.64188 5.69553 1.51401 5.74925C1.38614 5.80296 1.27146 5.88148 1.1773 5.97976C1.08313 6.07805 1.01156 6.19394 0.96715 6.32004C0.922744 6.44615 0.90648 6.57964 0.9194 6.71206L1.20358 9.62924H0.511334C0.435252 9.6292 0.360118 9.64534 0.291422 9.67645C0.222726 9.70756 0.162198 9.75292 0.114253 9.80912C0.0663078 9.86533 0.0321577 9.93102 0.0142922 10.0014C-0.00357333 10.0718 -0.00470542 10.145 0.0109846 10.2158L2.44908 21.2662C2.50876 21.5325 2.66245 21.7713 2.8846 21.9429C3.10674 22.1146 3.38394 22.2087 3.67011 22.2097H14.3293C14.6155 22.2087 14.8927 22.1146 15.1148 21.9429C15.337 21.7713 15.4906 21.5325 15.5503 21.2662L17.989 10.2156Z" fill="#F7A600"/>
<path d="M14.0021 8.01508H15.9275L15.7696 9.62962H13.9075L14.0021 8.01508Z" fill="white"/>
<path d="M11.1049 3.05076L13.2705 3.03635L13.0084 7.50192L12.8708 9.8482C12.7423 9.93417 12.6335 10.044 12.5508 10.171C12.4681 10.298 12.4132 10.4396 12.3895 10.5873C12.3196 11.0352 12.1523 11.4643 11.8982 11.8471C11.6441 12.2299 11.3089 12.5581 10.9139 12.8107L11.1049 3.05076Z" fill="white"/>
<path d="M10.1175 1.27875L10.0914 2.558C10.0914 2.56009 10.0914 2.56221 10.0914 2.56429L9.88204 13.2617C9.30425 13.4119 8.6947 13.4119 8.11691 13.2617L7.9254 3.4725C7.9254 3.47098 7.9254 3.4693 7.9254 3.46779L7.86395 1.29575L10.1175 1.27875Z" fill="white"/>
<path d="M6.91322 3.96347L7.08624 12.8098C6.69126 12.5573 6.356 12.2292 6.10189 11.8464C5.84777 11.4636 5.68039 11.0346 5.61046 10.5868C5.56571 10.3057 5.40906 10.0518 5.17296 9.87756L4.95281 6.12738L4.82892 3.96366L6.91322 3.96347Z" fill="white"/>
<path d="M3.95948 6.64111L4.13488 9.62962H2.23035L1.93921 6.64111H3.95948Z" fill="white"/>
<path d="M14.5502 21.0667C14.5395 21.1148 14.5117 21.1579 14.4717 21.1889C14.4316 21.2199 14.3815 21.2368 14.3299 21.237H3.67071C3.61907 21.2368 3.56904 21.2199 3.52895 21.1889C3.48886 21.1579 3.46114 21.1148 3.45037 21.0667L1.14154 10.6029H4.43396C4.45187 10.6032 4.46965 10.6061 4.48666 10.6115C4.48984 10.6126 4.49322 10.6131 4.4964 10.6143C4.52248 10.6226 4.54576 10.6374 4.56384 10.6572C4.58191 10.6769 4.59412 10.7008 4.59921 10.7265C4.75322 11.7327 5.28275 12.6524 6.09096 13.3175C6.89917 13.9826 7.93203 14.3487 9.0006 14.3487C10.0692 14.3487 11.102 13.9826 11.9102 13.3175C12.7184 12.6524 13.248 11.7327 13.402 10.7265C13.41 10.6908 13.4309 10.6588 13.4612 10.6362C13.4914 10.6136 13.529 10.6018 13.5674 10.6029H16.8589L14.5502 21.0667Z" fill="white"/>
</svg>
