<svg width="24" height="22" viewBox="0 0 24 22" fill="none" xmlns="http://www.w3.org/2000/svg">
<path d="M4.82139 1V3.1973H1V5.34858C1 8.94938 2.04835 10.9569 4.56776 12.2051C5.50439 12.719 6.36889 13.3594 7.1379 14.109C7.756 14.7818 8.50982 15.3098 9.34732 15.6563L10.2999 15.9554V18.5611H8.8457C7.08718 18.5611 6.49537 18.9695 6.49537 20.1832V21H17.4861V20.2695C17.4861 19.0788 16.7647 18.5439 15.0963 18.5439H13.6816V15.9554L14.6511 15.6621C15.4898 15.3151 16.2439 14.785 16.8605 14.109C17.6627 13.3286 18.5608 12.6577 19.5321 12.113C20.2863 11.7426 20.9598 11.2213 21.5127 10.58C22.0655 9.93869 22.4864 9.19052 22.7504 8.37992C22.9298 7.37628 23.0129 6.35717 22.9984 5.33707V3.20305H19.1601V1H4.82139ZM11.9907 4.66408L13.1462 7.10296H15.9305L13.7493 9.15646L14.3749 11.7794L11.9907 10.4737L9.60659 11.7967L10.2322 9.17371L8.04535 7.12022H10.8353L11.9907 4.66408ZM3.00651 5.39459H4.78758V9.92724C4.60158 10.0423 4.02104 9.35203 3.59832 8.56399C3.35833 7.96068 3.20458 7.32528 3.14178 6.67731L3.00651 5.39459ZM19.1939 5.39459H21.1328L20.9693 6.66005C20.9309 7.71348 20.5159 8.71609 19.8026 9.47857C19.6348 9.71195 19.4219 9.90772 19.177 10.0538L19.1939 5.39459Z" stroke="#F7A600" stroke-linecap="round" stroke-linejoin="round"/>
</svg>
